# xmcd
#
# Track frame offsets:
# 150
# 19206
# 49363
# 62260
# 78675
# 106387
# 128704
# 147120
# 161935
# 175347
# 191371
# 210678
# 230489
#
# Disc length: 3299 seconds
#
#
# Revision: 5
# Processed by: cddbd v1.5.1PL2 Copyright (c) Steve Scherf et al.
# Submitted via: FreeRIP 2.945 
#
DISCID=b60ce10d
DTITLE=Deuses da Guitarra - Deuses da Guitarra
DYEAR=2002
DGENRE=Blues
TTITLE0=Eric Clapton - Crossroads
TTITLE1=Santana - Samba pa ti
TTITLE2=J.J. Cale - Cocaine
TTITLE3=B. B. King - My Lucille
TTITLE4=Steve Vai - For the love of god
TTITLE5=George Benson - The Ghetto
TTITLE6=Jonny Lang - Lie To Me
TTITLE7=Buddy Guy - My Time After a While
TTITLE8=John Lee Hooker - One Bourbon One Scotch One Beer
TTITLE9=Robert Cray - Nothing But a Woman
TTITLE10=Muddy Waters - I Just Want To Make Love To You
TTITLE11=Willie Nelson - The Thrill is Gone
TTITLE12=Jimi Page - No Quarter
EXTD=
EXTT0=
EXTT1=
EXTT2=
EXTT3=
EXTT4=
EXTT5=
EXTT6=
EXTT7=
EXTT8=
EXTT9=
EXTT10=
EXTT11=
EXTT12=
PLAYORDER=
